<?xml version="1.0" standalone="no"?>
<!DOCTYPE svg PUBLIC "-//W3C//DTD SVG 20010904//EN"
 "http://www.w3.org/TR/2001/REC-SVG-20010904/DTD/svg10.dtd">
<svg version="1.0" xmlns="http://www.w3.org/2000/svg"
 width="512.000000pt" height="512.000000pt" viewBox="0 0 512.000000 512.000000"
 preserveAspectRatio="xMidYMid meet">
<metadata>
Created by potrace 1.14, written by Peter Selinger 2001-2017
</metadata>
<g transform="translate(0.000000,512.000000) scale(0.100000,-0.100000)"
fill="#000000" stroke="none">
<path d="M680 2798 c0 -1257 4 -1957 11 -1983 5 -22 12 -49 14 -60 11 -49 78
-164 122 -211 51 -55 136 -114 200 -138 117 -46 105 -46 1218 -42 578 1 1064
6 1080 9 17 3 48 8 71 12 296 44 557 164 739 342 160 155 250 331 289 565 18
109 18 559 0 658 -22 122 -29 142 -79 240 -105 202 -277 361 -493 456 -40 17
-74 34 -75 37 -1 3 25 25 58 49 148 109 272 304 311 488 4 19 8 161 9 315 3
297 -4 369 -46 495 -19 58 -75 177 -89 190 -3 3 -17 23 -32 45 -29 42 -116
136 -159 170 -108 88 -268 174 -405 219 -85 28 -89 29 -199 51 -38 7 -86 17
-105 21 -19 4 -576 9 -1238 11 l-1202 4 0 -1943z m2293 1179 c173 -45 297
-161 321 -299 8 -41 7 -342 0 -386 -22 -135 -106 -257 -214 -312 -95 -48 -120
-50 -852 -50 l-688 0 0 530 0 531 703 -4 c386 -1 715 -6 730 -10z m297 -1793
c133 -39 221 -107 269 -208 30 -62 33 -86 36 -281 3 -275 -14 -344 -109 -438
-66 -66 -113 -88 -277 -134 -13 -4 -390 -9 -836 -10 l-813 -4 0 551 0 550 823
-1 822 -1 85 -24z"/>
</g>
</svg>
